# Exported from ProBuilder
# http://www.procore3d.com/probuilder
# 8/8/2017 9:06:22 PM

mtllib ./TruckBSteeringWheel.mtl
o TruckBSteeringWheel

g TruckBSteeringWheel
v -3.194873E-08 0.4999995 -0.2680054
v -4.386948E-08 0.4999995 -0.3680039
v 0.3535538 0.3535528 -0.2680054
v 0.3535538 0.3535528 -0.3680039
v 0.3535538 0.3535528 -0.2680054
v 0.3535538 0.3535528 -0.3680039
v 0.5 -4.768372E-07 -0.2680055
v 0.5 -4.768372E-07 -0.3680039
v 0.5 -4.768372E-07 -0.2680055
v 0.5 -4.768372E-07 -0.3680039
v 0.3535538 -0.3535542 -0.2680054
v 0.3535538 -0.3535542 -0.3680039
v 0.3535538 -0.3535542 -0.2680054
v 0.3535538 -0.3535542 -0.3680039
v -3.194873E-08 -0.5000005 -0.2680054
v -4.386948E-08 -0.5000005 -0.3680039
v -3.194873E-08 -0.5000005 -0.2680054
v -4.386948E-08 -0.5000005 -0.3680039
v -0.3535538 -0.3535542 -0.2680054
v -0.3535539 -0.3535542 -0.3680038
v -0.3535538 -0.3535542 -0.2680054
v -0.3535539 -0.3535542 -0.3680038
v -0.5000001 -4.768372E-07 -0.2680053
v -0.5000001 -4.768372E-07 -0.3680038
v -0.5000001 -4.768372E-07 -0.2680053
v -0.5000001 -4.768372E-07 -0.3680038
v -0.3535538 0.3535528 -0.2680054
v -0.3535539 0.3535528 -0.3680038
v -0.3535538 0.3535528 -0.2680054
v -0.3535539 0.3535528 -0.3680038
v -3.194873E-08 0.4999995 -0.2680054
v -4.386948E-08 0.4999995 -0.3680039
v 0.4249992 -4.768372E-07 -0.4430009
v -5.280981E-08 -4.768372E-07 -0.4430009
v 0.3005218 -0.3005209 -0.4430009
v -5.280981E-08 -0.4250007 -0.4430009
v -0.3005219 -0.3005209 -0.4430008
v -0.4249993 -4.768372E-07 -0.4430008
v 0.3005218 0.3005199 -0.4430009
v -5.280981E-08 0.4249997 -0.4430009
v -0.3005219 0.3005195 -0.4430008
v -5.280981E-08 0.4249997 -0.4430009
v 0.3535538 0.3535528 -0.3680039
v -4.386948E-08 0.4999995 -0.3680039
v 0.3005218 0.3005199 -0.4430009
v 0.3005218 0.3005199 -0.4430009
v 0.5 -4.768372E-07 -0.3680039
v 0.3535538 0.3535528 -0.3680039
v 0.4249992 -4.768372E-07 -0.4430009
v 0.3535538 -0.3535542 -0.3680039
v 0.3005218 -0.3005209 -0.4430009
v 0.3005218 -0.3005209 -0.4430009
v -4.386948E-08 -0.5000005 -0.3680039
v 0.3535538 -0.3535542 -0.3680039
v -5.280981E-08 -0.4250007 -0.4430009
v -5.280981E-08 -0.4250007 -0.4430009
v -0.3535539 -0.3535542 -0.3680038
v -4.386948E-08 -0.5000005 -0.3680039
v -0.3005219 -0.3005209 -0.4430008
v -0.3005219 -0.3005209 -0.4430008
v -0.5000001 -4.768372E-07 -0.3680038
v -0.3535539 -0.3535542 -0.3680038
v -0.4249993 -4.768372E-07 -0.4430008
v -0.3535539 0.3535528 -0.3680038
v -0.3005219 0.3005195 -0.4430008
v -4.386948E-08 0.4999995 -0.3680039
v -5.280981E-08 0.4249997 -0.4430009
v -0.4249993 -4.768372E-07 -0.1930008
v -0.3535538 -0.3535542 -0.2680054
v -0.5000001 -4.768372E-07 -0.2680053
v -0.4249993 -4.768372E-07 -0.1930008
v -0.3005219 -0.3005209 -0.1930008
v -0.3535538 -0.3535542 -0.2680054
v -2.300749E-08 -4.768372E-07 -0.1930008
v -2.300749E-08 -0.4250007 -0.1930008
v -0.3005219 0.3005199 -0.1930008
v -0.5000001 -4.768372E-07 -0.2680053
v -0.3535538 0.3535528 -0.2680054
v -0.3005219 -0.3005209 -0.1930008
v -3.194873E-08 -0.5000005 -0.2680054
v -2.300749E-08 -0.4250007 -0.1930008
v 0.3005219 -0.3005209 -0.1930009
v -2.300749E-08 0.4249997 -0.1930008
v -3.194873E-08 0.4999995 -0.2680054
v 0.3005219 0.3005199 -0.1930009
v -3.194873E-08 0.4999995 -0.2680054
v 0.3535538 0.3535528 -0.2680054
v -2.300749E-08 0.4249997 -0.1930008
v 0.3005219 0.3005199 -0.1930009
v 0.3005219 -0.3005209 -0.1930009
v 0.5 -4.768372E-07 -0.2680055
v 0.3535538 -0.3535542 -0.2680054
v 0.4249993 -4.768372E-07 -0.1930009
v 0.4249993 -4.768372E-07 -0.1930009
v 0.3535538 0.3535528 -0.2680054
v 0.3005219 0.3005199 -0.1930009
v -2.300749E-08 -0.4250007 -0.1930008
v -3.194873E-08 -0.5000005 -0.2680054
v -0.0707092 0.07071209 0.3000031
v 3.576315E-08 1.430511E-06 0.3000031
v -0.09999845 1.430511E-06 0.3000031
v 0.07070927 0.07071209 0.3000031
v 3.576315E-08 0.1000013 0.3000031
v 0.09999852 1.430511E-06 0.3000031
v 0.07070927 -0.07070923 0.3000031
v -0.0707092 -0.07070923 0.3000031
v 3.576315E-08 -0.09999847 0.3000031
v -0.09999845 1.430511E-06 0.3000031
v -0.09999852 1.430511E-06 -0.2999955
v -0.0707092 0.07071209 0.3000031
v -0.07070927 0.07071209 -0.2999955
v 3.576315E-08 0.1000013 0.3000031
v -3.576224E-08 0.1000013 -0.2999955
v 3.576315E-08 -0.09999847 0.3000031
v -3.576224E-08 -0.09999847 -0.2999955
v -0.0707092 -0.07070923 0.3000031
v -0.07070927 -0.07070923 -0.2999955
v -0.09999845 1.430511E-06 0.3000031
v -0.09999852 1.430511E-06 -0.2999955
v 0.07070927 -0.07070923 0.3000031
v 0.0707092 -0.07070923 -0.2999955
v 3.576315E-08 -0.09999847 0.3000031
v -3.576224E-08 -0.09999847 -0.2999955
v 0.09999852 1.430511E-06 0.3000031
v 0.09999845 1.430511E-06 -0.2999955
v 0.07070927 0.07071209 0.3000031
v 0.0707092 0.07071209 -0.2999955
v 0.09999852 1.430511E-06 0.3000031
v 0.09999845 1.430511E-06 -0.2999955
v 3.576315E-08 0.1000013 0.3000031
v -3.576224E-08 0.1000013 -0.2999955

vn 0 0.9238796 0
vn 0 0.9238796 0
vn 0.6532816 0.6532812 -7.787723E-08
vn 0.6532816 0.6532812 -7.787723E-08
vn 0.6532816 0.6532812 -7.787723E-08
vn 0.6532816 0.6532812 -7.787723E-08
vn 0.92388 2.235174E-07 -1.101351E-07
vn 0.92388 2.235174E-07 -1.101351E-07
vn 0.92388 2.235174E-07 -1.101351E-07
vn 0.92388 2.235174E-07 -1.101351E-07
vn 0.6532812 -0.6532811 -7.787717E-08
vn 0.6532812 -0.6532811 -7.787717E-08
vn 0.6532812 -0.6532811 -7.787717E-08
vn 0.6532812 -0.6532811 -7.787717E-08
vn 0 -0.92388 0
vn 0 -0.92388 0
vn 0 -0.92388 0
vn 0 -0.92388 0
vn -0.6532812 -0.6532811 7.787717E-08
vn -0.6532812 -0.6532811 7.787717E-08
vn -0.6532812 -0.6532811 7.787717E-08
vn -0.6532812 -0.6532811 7.787717E-08
vn -0.92388 2.235174E-07 1.101351E-07
vn -0.92388 2.235174E-07 1.101351E-07
vn -0.92388 2.235174E-07 1.101351E-07
vn -0.92388 2.235174E-07 1.101351E-07
vn -0.6532816 0.6532812 7.787723E-08
vn -0.6532816 0.6532812 7.787723E-08
vn -0.6532816 0.6532812 7.787723E-08
vn -0.6532816 0.6532812 7.787723E-08
vn 0 0.9238796 0
vn 0 0.9238796 0
vn 0.2137313 -0.03278895 -0.9763423
vn -1.192093E-07 0 -1
vn 0.1279452 -0.1743159 -0.9763423
vn -0.03278889 -0.2137309 -0.9763423
vn -0.1743161 -0.1279449 -0.9763423
vn -0.2137315 0.03278897 -0.9763421
vn 0.1743158 0.127945 -0.9763423
vn 0.03278867 0.213731 -0.9763423
vn -0.1279456 0.174316 -0.9763422
vn 0.03278867 0.213731 -0.9763423
vn 0.4365614 0.559629 -0.7044358
vn -0.08702141 0.7044108 -0.704438
vn 0.1743158 0.127945 -0.9763423
vn 0.1743158 0.127945 -0.9763423
vn 0.7044098 0.08701935 -0.7044392
vn 0.4365614 0.559629 -0.7044358
vn 0.2137313 -0.03278895 -0.9763423
vn 0.5596272 -0.4365591 -0.7044387
vn 0.1279452 -0.1743159 -0.9763423
vn 0.1279452 -0.1743159 -0.9763423
vn 0.08702093 -0.7044109 -0.7044379
vn 0.5596272 -0.4365591 -0.7044387
vn -0.03278889 -0.2137309 -0.9763423
vn -0.03278889 -0.2137309 -0.9763423
vn -0.4365609 -0.5596281 -0.7044368
vn 0.08702093 -0.7044109 -0.7044379
vn -0.1743161 -0.1279449 -0.9763423
vn -0.1743161 -0.1279449 -0.9763423
vn -0.7044097 -0.08701932 -0.7044393
vn -0.4365609 -0.5596281 -0.7044368
vn -0.2137315 0.03278897 -0.9763421
vn -0.5596272 0.4365593 -0.7044385
vn -0.1279456 0.174316 -0.9763422
vn -0.08702141 0.7044108 -0.704438
vn 0.03278867 0.213731 -0.9763423
vn -0.213752 -0.03279213 0.9763376
vn -0.5596553 -0.4365811 0.7044026
vn -0.7044453 0.08702374 0.7044032
vn -0.213752 -0.03279213 0.9763376
vn -0.1279576 -0.1743328 0.9763376
vn -0.5596553 -0.4365811 0.7044026
vn 1.192093E-07 0 1
vn 0.03279207 -0.2137516 0.9763376
vn -0.1743328 0.1279575 0.9763377
vn -0.7044453 0.08702374 0.7044032
vn -0.4365834 0.5596572 0.7043996
vn -0.1279576 -0.1743328 0.9763376
vn -0.08702532 -0.7044465 0.7044019
vn 0.03279207 -0.2137516 0.9763376
vn 0.174333 -0.1279574 0.9763377
vn -0.03279196 0.2137517 0.9763376
vn 0.08702557 0.7044472 0.7044011
vn 0.127958 0.1743329 0.9763376
vn 0.08702557 0.7044472 0.7044011
vn 0.5596564 0.4365819 0.7044013
vn -0.03279196 0.2137517 0.9763376
vn 0.127958 0.1743329 0.9763376
vn 0.174333 -0.1279574 0.9763377
vn 0.7044452 -0.08702372 0.7044033
vn 0.436583 -0.5596564 0.7044007
vn 0.2137522 0.03279213 0.9763374
vn 0.2137522 0.03279213 0.9763374
vn 0.5596564 0.4365819 0.7044013
vn 0.127958 0.1743329 0.9763376
vn 0.03279207 -0.2137516 0.9763376
vn -0.08702532 -0.7044465 0.7044019
vn 1.192093E-07 0 1
vn 1.192093E-07 0 1
vn 1.192093E-07 0 1
vn 1.192093E-07 0 1
vn 1.192093E-07 0 1
vn 1.192093E-07 0 1
vn 1.192093E-07 0 1
vn 1.192093E-07 0 1
vn 1.192093E-07 0 1
vn -0.92388 0 1.101351E-07
vn -0.92388 0 1.101351E-07
vn -0.7971787 0.6037436 9.503109E-08
vn -0.6037543 0.7971705 7.197312E-08
vn 0 0.9238771 0
vn 0 0.9238771 0
vn 0 -0.9238771 0
vn 0 -0.9238771 0
vn -0.6037543 -0.7971705 7.197312E-08
vn -0.7971787 -0.6037436 9.503109E-08
vn -0.92388 0 1.101351E-07
vn -0.92388 0 1.101351E-07
vn 0.7971787 -0.6037436 -9.503109E-08
vn 0.6037543 -0.7971705 -7.197312E-08
vn 0 -0.9238771 0
vn 0 -0.9238771 0
vn 0.92388 0 -1.101351E-07
vn 0.92388 0 -1.101351E-07
vn 0.6037543 0.7971705 -7.197312E-08
vn 0.7971787 0.6037436 -9.503109E-08
vn 0.92388 0 -1.101351E-07
vn 0.92388 0 -1.101351E-07
vn 0 0.9238771 0
vn 0 0.9238771 0

vt 0.2319946 0.5000005
vt 0.1319962 0.5000005
vt 0.2319946 0.8535542
vt 0.1319962 0.8535542
vt 0.7680054 0.8535533
vt 0.8680038 0.8535533
vt 0.7680054 0.5
vt 0.8680038 0.5
vt 0.7680054 0.5
vt 0.8680038 0.5
vt 0.7680054 0.1464462
vt 0.8680038 0.1464462
vt 0.7680054 0.8535542
vt 0.8680038 0.8535542
vt 0.7680054 0.5000005
vt 0.8680038 0.5000005
vt 0.7680054 0.5000005
vt 0.8680038 0.5000005
vt 0.7680054 0.1464467
vt 0.8680038 0.1464467
vt 0.2319946 0.1464462
vt 0.1319962 0.1464462
vt 0.2319946 0.5
vt 0.1319962 0.5
vt 0.2319946 0.5
vt 0.1319962 0.5
vt 0.2319946 0.8535533
vt 0.1319962 0.8535533
vt 0.2319946 0.1464467
vt 0.1319962 0.1464467
vt 0.2319946 0.5000005
vt 0.1319962 0.5000005
vt 0.07500076 0.5
vt 0.5 0.5
vt 0.1994781 0.1994796
vt 0.5 0.07499981
vt 0.8005219 0.1994796
vt 0.9249992 0.5
vt 0.1994781 0.8005204
vt 0.5 0.9250002
vt 0.8005219 0.8005199
vt 0.5 0.9250002
vt 0.1464462 0.8535533
vt 0.5 1
vt 0.1994781 0.8005204
vt 0.1994781 0.8005204
vt 0 0.5
vt 0.1464462 0.8535533
vt 0.07500076 0.5
vt 0.1464462 0.1464462
vt 0.1994781 0.1994796
vt 0.1994781 0.1994796
vt 0.5 0
vt 0.1464462 0.1464462
vt 0.5 0.07499981
vt 0.5 0.07499981
vt 0.8535538 0.1464462
vt 0.5 0
vt 0.8005219 0.1994796
vt 0.8005219 0.1994796
vt 1 0.5
vt 0.8535538 0.1464462
vt 0.9249992 0.5
vt 0.8535538 0.8535533
vt 0.8005219 0.8005199
vt 0.5 1
vt 0.5 0.9250002
vt 0.07500076 0.5
vt 0.1464462 0.1464462
vt 0 0.5
vt 0.07500076 0.5
vt 0.1994781 0.1994796
vt 0.1464462 0.1464462
vt 0.5 0.5
vt 0.5 0.07499981
vt 0.1994781 0.8005204
vt 0 0.5
vt 0.1464462 0.8535533
vt 0.1994781 0.1994796
vt 0.5 0
vt 0.5 0.07499981
vt 0.8005219 0.1994796
vt 0.5 0.9250002
vt 0.5 1
vt 0.8005219 0.8005204
vt 0.5 1
vt 0.8535538 0.8535533
vt 0.5 0.9250002
vt 0.8005219 0.8005204
vt 0.8005219 0.1994796
vt 1 0.5
vt 0.8535538 0.1464462
vt 0.9249992 0.5
vt 0.9249992 0.5
vt 0.8535538 0.8535533
vt 0.8005219 0.8005204
vt 0.5 0.07499981
vt 0.5 0
vt 0.4292908 0.5707126
vt 0.5 0.5000019
vt 0.4000015 0.5000019
vt 0.5707092 0.5707126
vt 0.5 0.6000018
vt 0.5999985 0.5000019
vt 0.5707092 0.4292912
vt 0.4292908 0.4292912
vt 0.5 0.400002
vt 0.8000031 0.5000019
vt 0.2000046 0.5000019
vt 0.8000031 0.5707126
vt 0.2000046 0.5707126
vt 0.8000031 0.6000018
vt 0.2000046 0.6000018
vt 0.8000031 0.400002
vt 0.2000046 0.400002
vt 0.8000031 0.4292912
vt 0.2000046 0.4292912
vt 0.8000031 0.5000019
vt 0.2000046 0.5000019
vt 0.1999969 0.4292912
vt 0.7999954 0.4292912
vt 0.1999969 0.400002
vt 0.7999954 0.400002
vt 0.1999969 0.5000019
vt 0.7999954 0.5000019
vt 0.1999969 0.5707126
vt 0.7999954 0.5707126
vt 0.1999969 0.5000019
vt 0.7999954 0.5000019
vt 0.1999969 0.6000018
vt 0.7999954 0.6000018

g pb_Mesh22212
usemtl Black
f 3/3/3 2/2/2 1/1/1
f 3/3/3 4/4/4 2/2/2
f 7/7/7 6/6/6 5/5/5
f 7/7/7 8/8/8 6/6/6
f 11/11/11 10/10/10 9/9/9
f 11/11/11 12/12/12 10/10/10
f 15/15/15 14/14/14 13/13/13
f 15/15/15 16/16/16 14/14/14
f 19/19/19 18/18/18 17/17/17
f 19/19/19 20/20/20 18/18/18
f 23/23/23 22/22/22 21/21/21
f 23/23/23 24/24/24 22/22/22
f 27/27/27 26/26/26 25/25/25
f 27/27/27 28/28/28 26/26/26
f 31/31/31 30/30/30 29/29/29
f 31/31/31 32/32/32 30/30/30
f 35/35/35 34/34/34 33/33/33
f 36/36/36 34/34/34 35/35/35
f 37/37/37 34/34/34 36/36/36
f 38/38/38 34/34/34 37/37/37
f 33/33/33 34/34/34 39/39/39
f 39/39/39 34/34/34 40/40/40
f 40/40/40 34/34/34 41/41/41
f 41/41/41 34/34/34 38/38/38
f 44/44/44 43/43/43 42/42/42
f 43/43/43 45/45/45 42/42/42
f 48/48/48 47/47/47 46/46/46
f 47/47/47 49/49/49 46/46/46
f 47/47/47 50/50/50 49/49/49
f 50/50/50 51/51/51 49/49/49
f 54/54/54 53/53/53 52/52/52
f 53/53/53 55/55/55 52/52/52
f 58/58/58 57/57/57 56/56/56
f 57/57/57 59/59/59 56/56/56
f 62/62/62 61/61/61 60/60/60
f 61/61/61 63/63/63 60/60/60
f 61/61/61 64/64/64 63/63/63
f 64/64/64 65/65/65 63/63/63
f 64/64/64 66/66/66 65/65/65
f 66/66/66 67/67/67 65/65/65
f 70/70/70 69/69/69 68/68/68
f 73/73/73 72/72/72 71/71/71
f 72/72/72 74/74/74 71/71/71
f 75/75/75 74/74/74 72/72/72
f 71/71/71 74/74/74 76/76/76
f 78/78/78 77/77/77 76/76/76
f 77/77/77 71/71/71 76/76/76
f 69/69/69 80/80/80 79/79/79
f 80/80/80 81/81/81 79/79/79
f 82/82/82 74/74/74 75/75/75
f 76/76/76 74/74/74 83/83/83
f 84/84/84 78/78/78 83/83/83
f 78/78/78 76/76/76 83/83/83
f 87/87/87 86/86/86 85/85/85
f 86/86/86 88/88/88 85/85/85
f 83/83/83 74/74/74 89/89/89
f 92/92/92 91/91/91 90/90/90
f 91/91/91 93/93/93 90/90/90
f 94/94/94 74/74/74 82/82/82
f 89/89/89 74/74/74 94/94/94
f 91/91/91 95/95/95 93/93/93
f 95/95/95 96/96/96 93/93/93
f 98/98/98 92/92/92 97/97/97
f 92/92/92 90/90/90 97/97/97
f 101/101/101 100/100/100 99/99/99
f 103/103/103 100/100/100 102/102/102
f 102/102/102 100/100/100 104/104/104
f 104/104/104 100/100/100 105/105/105
f 99/99/99 100/100/100 103/103/103
f 107/107/107 100/100/100 106/106/106
f 105/105/105 100/100/100 107/107/107
f 106/106/106 100/100/100 101/101/101
f 110/110/110 109/109/109 108/108/108
f 110/110/110 111/111/111 109/109/109
f 112/112/112 111/111/111 110/110/110
f 112/112/112 113/113/113 111/111/111
f 116/116/116 115/115/115 114/114/114
f 116/116/116 117/117/117 115/115/115
f 118/118/118 117/117/117 116/116/116
f 118/118/118 119/119/119 117/117/117
f 122/122/122 121/121/121 120/120/120
f 122/122/122 123/123/123 121/121/121
f 120/120/120 125/125/125 124/124/124
f 120/120/120 121/121/121 125/125/125
f 128/128/128 127/127/127 126/126/126
f 128/128/128 129/129/129 127/127/127
f 126/126/126 131/131/131 130/130/130
f 126/126/126 127/127/127 131/131/131

